PathFileType	4	(X/Y/Z)	HSS_squat4.trc
DataRate	CameraRate	NumFrames	NumMarkers	Units	OrigDataRate	OrigDataStartFrame	OrigNumFrames
120.0	120.0	4	44	mm	120.0	365	973
Frame#	Time		R.Shoulder		Offset		L.Shoulder		R.Elbow		R.Wrist.Radial		R.Wrist		R.Hand		L.Elbow		L.Wrist.Radial		L.Wrist		L.Hand		R.Hip		V.Sacral		L.PSIS		L.Hip		R.Thigh.Upper		R.Thigh.Front		R.Thigh.Rear		X.Shell.Lower.Thigh.Right		R.Knee.Lateral		R.Shank.Upper		R.Shank.Front		R.Shank.Rear		X.Shell.Lower.Shank.Right		R.Ankle.Lateral		R.Heel		R.Toe		L.Thigh.Upper		L.Thigh.Front		L.Thigh.Rear		X.Shell.Lower.Thigh.Left		L.Knee.Lateral		L.Shank.Upper		L.Shank.Front		L.Shank.Rear		X.Shell.Lower.Shank.Left		L.Ankle.Lateral		L.Heel		L.Toe		R.Troc		L.Troc		R.PSIS		L.ASIS		R.ASIS
			X1	Y1	Z1	X2	Y2	Z2	X3	Y3	Z3	X4	Y4	Z4	X5	Y5	Z5	X6	Y6	Z6	X7	Y7	Z7	X8	Y8	Z8	X9	Y9	Z9	X10	Y10	Z10	X11	Y11	Z11	X12	Y12	Z12	X13	Y13	Z13	X14	Y14	Z14	X15	Y15	Z15	X16	Y16	Z16	X17	Y17	Z17	X18	Y18	Z18	X19	Y19	Z19	X20	Y20	Z20	X21	Y21	Z21	X22	Y22	Z22	X23	Y23	Z23	X24	Y24	Z24	X25	Y25	Z25	X26	Y26	Z26	X27	Y27	Z27	X28	Y28	Z28	X29	Y29	Z29	X30	Y30	Z30	X31	Y31	Z31	X32	Y32	Z32	X33	Y33	Z33	X34	Y34	Z34	X35	Y35	Z35	X36	Y36	Z36	X37	Y37	Z37	X38	Y38	Z38	X39	Y39	Z39	X40	Y40	Z40	X41	Y41	Z41	X42	Y42	Z42	X43	Y43	Z43	X44	Y44	Z44

365	3.03333	144.01807	1475.12817	-62.67560	-135.78024	1356.70032	24.57186	-197.87848	1484.87622	-67.29350	299.41855	1314.61157	-347.45270	71.80296	1370.51978	-484.28116	114.65784	1411.88684	-526.18768	30.48577	1413.68823	-556.06079	-358.55817	1343.44409	-358.63391	-123.84202	1373.04736	-486.87170	-165.96669	1417.23364	-525.64307	-80.89146	1405.26245	-552.20929	123.41257	1033.52246	-161.21071	-26.60062	1018.32544	-42.33999	-67.06542	1023.80066	-45.38181	-172.92033	1033.89990	-165.95096	179.48264	695.84564	-187.14108	168.04779	656.30237	-219.88940	190.52103	659.01978	-162.18063	176.73055	624.21967	-189.19209	170.07596	518.09119	-122.59341	230.97137	378.84595	-98.79952	213.85838	332.94754	-127.18494	220.33884	341.68057	-66.95081	217.74980	300.58514	-89.95547	189.23015	72.46702	-81.94820	141.54539	33.44960	-41.86750	201.93373	31.20034	-237.98225	-220.96939	695.46533	-202.87032	-203.63039	643.82721	-221.60240	-237.63693	661.31238	-171.62965	-229.05666	625.32849	-197.16953	-215.59389	510.20081	-126.43681	-273.89703	316.74539	-86.52427	-260.88751	290.82541	-114.55244	-263.00897	277.06073	-56.00359	-269.21469	246.47821	-78.35084	-240.30263	75.88664	-95.24158	-196.13493	34.89788	-41.91279	-241.52498	32.16242	-241.28035	163.96889	896.34766	-167.89438	-213.09335	902.12000	-163.73927	16.79733	1022.09125	-42.86443	-131.70215	998.78851	-229.12422	91.44112	996.57172	-221.17970
366	3.04167	144.02911	1475.13379	-62.76654	-135.74327	1356.71228	24.44522	-197.84718	1484.87317	-67.37786	299.43744	1314.63831	-347.55664	71.83881	1370.48279	-484.42047	114.67915	1411.94373	-526.24896	30.47491	1413.70508	-556.18604	-358.52536	1343.39404	-358.74008	-123.80930	1373.07410	-486.91626	-165.94870	1417.22791	-525.71271	-80.90383	1405.24341	-552.36884	123.41132	1033.50073	-161.24544	-26.64073	1018.33588	-42.42391	-67.10890	1023.81421	-45.46859	-172.90314	1033.90686	-166.06195	179.48685	695.84644	-187.16534	168.04047	656.28778	-219.92043	190.52585	659.00763	-162.18478	176.75462	624.22546	-189.24141	170.07130	518.10419	-122.63809	230.97325	378.85870	-98.83195	213.86372	332.95200	-127.16529	220.34749	341.70349	-66.98335	217.74391	300.59357	-89.98527	189.21922	72.48794	-81.92743	141.54393	33.44169	-41.87193	201.96356	31.20616	-237.96568	-220.98122	695.46777	-202.89026	-203.64151	643.82935	-221.63118	-237.65172	661.30035	-171.65865	-229.06975	625.31732	-197.19522	-215.61725	510.20831	-126.47935	-273.90479	316.74185	-86.53744	-260.89154	290.83603	-114.56542	-263.03165	277.06473	-56.01777	-269.23706	246.48251	-78.36662	-240.31567	75.88854	-95.24613	-196.13901	34.89351	-41.90460	-241.51450	32.14823	-241.29248	163.94231	896.35797	-167.90555	-213.10167	902.11414	-163.77690	16.78182	1022.09833	-42.93473	-131.72284	998.76312	-229.18700	91.43864	996.56415	-221.23805
367	3.05000	144.03775	1475.13293	-62.87374	-135.74416	1356.69482	24.36138	-197.83873	1484.86816	-67.47196	299.45459	1314.68164	-347.64111	71.85427	1370.48865	-484.52237	114.68593	1411.99231	-526.31738	30.49538	1413.73157	-556.27167	-358.50061	1343.34241	-358.83566	-123.79757	1373.06555	-486.98529	-165.94481	1417.21167	-525.76477	-80.87611	1405.23096	-552.50055	123.40302	1033.51685	-161.32072	-26.63342	1018.34711	-42.53033	-67.19827	1023.87292	-45.18608	-172.91501	1033.90991	-166.12186	179.50067	695.83618	-187.19316	168.02768	656.27917	-219.89948	190.52130	659.00250	-162.26079	176.73444	624.20667	-189.31355	170.04410	518.08289	-122.65611	230.97729	378.86340	-98.85239	213.85028	332.97485	-127.22805	220.35400	341.70975	-67.01517	217.76048	300.61121	-90.01623	189.22903	72.48257	-81.94728	141.54228	33.43795	-41.90776	201.94774	31.20324	-237.96391	-220.99062	695.44312	-202.92851	-203.64378	643.79437	-221.65994	-237.66266	661.29224	-171.67070	-229.11906	625.32227	-197.23433	-215.62685	510.20380	-126.48201	-273.91574	316.74533	-86.53779	-260.88510	290.84003	-114.57989	-263.06430	277.07983	-56.01675	-269.24588	246.49146	-78.38168	-240.31180	75.89680	-95.26286	-196.13695	34.89858	-41.92973	-241.54927	32.15416	-241.29131	163.94511	896.35315	-167.98804	-213.10832	902.10510	-163.81451	16.78567	1022.09924	-42.99270	-131.71690	998.76770	-229.24611	91.43697	996.57062	-221.30426
368	3.05833	144.04976	1475.15173	-62.97723	-135.70966	1356.72253	24.24575	-197.82849	1484.85925	-67.54604	299.47668	1314.70496	-347.73993	71.88316	1370.53345	-484.63208	114.70576	1412.02698	-526.44647	30.50105	1413.76025	-556.38470	-358.48074	1343.31030	-358.90521	-123.74770	1373.05957	-487.02789	-165.94727	1417.18774	-525.81940	-80.87377	1405.21692	-552.60919	123.39148	1033.49377	-161.39819	-26.60207	1018.34796	-42.64942	-67.20348	1023.87274	-45.21696	-172.91191	1033.91736	-166.22032	179.48781	695.84143	-187.27184	168.05931	656.28656	-220.00775	190.51831	659.01227	-162.33644	176.71220	624.20966	-189.41905	170.08138	518.10834	-122.70895	230.97795	378.87018	-98.90934	213.83998	332.98438	-127.26832	220.35117	341.71344	-67.03266	217.75549	300.60941	-90.04015	189.21011	72.49314	-81.94969	141.53969	33.43448	-41.90476	201.94417	31.21579	-237.96384	-221.02147	695.45428	-202.98454	-203.69426	643.80432	-221.70490	-237.67181	661.29694	-171.72594	-229.14209	625.29620	-197.30289	-215.63684	510.19611	-126.46416	-273.94400	316.75217	-86.55087	-260.90213	290.84732	-114.57388	-263.05606	277.08051	-56.03860	-269.25793	246.49287	-78.37013	-240.32237	75.89543	-95.23808	-196.12755	34.89589	-41.93969	-241.52794	32.15759	-241.28123	163.92749	896.34454	-168.07666	-213.09381	902.10107	-163.89084	16.79943	1022.09485	-43.06658	-131.75258	998.73987	-229.35728	91.43163	996.55884	-221.36942
